:FULLY-SPECIFIED
:DEGREES
151
root -2.87705 16.2063 -36.1202 3.28617 0.585832 -3.09112
lfemur -24.3325 6.10462 -7.91934
ltibia 50.5004
lfoot -24.4621 1.17697
ltoes -11.7274
rfemur -24.216 -8.34451 14.6419
rtibia 52.3511
rfoot -28.3136 2.64404
rtoes -8.64943
lowerback 8.21715 2.16172 -0.809506
upperback -3.67832 2.92457 1.47539
thorax -8.63259 1.51819 1.56078
lowerneck -5.41 3.40399 -0.244016
upperneck 9.10764 4.54928 0.561992
head 3.90797 2.26849 0.458946
lclavicle -1.0937e-15 1.16475e-15
lhumerus -27.2413 -4.57359 89.9326
lradius 24.7014
lwrist -28.0641
lhand -26.931 31.7692
lfingers 7.12502
lthumb -0.353418 61.7487
rclavicle -1.0937e-15 1.16475e-15
rhumerus -32.5036 1.18015 -78.6548
rradius 30.8807
rwrist 3.42684
rhand -19.631 -26.7931
rfingers 7.12502
rthumb 6.69602 -56.6672
152
root -2.87361 16.2001 -36.1302 3.26392 0.652743 -3.10164
lfemur -24.5077 5.7415 -7.9222
ltibia 50.7437
lfoot -24.3936 1.4285
ltoes -12.0869
rfemur -24.2628 -8.43909 14.6326
rtibia 52.4126
rfoot -28.2972 2.65651
rtoes -9.12676
lowerback 8.43771 2.25288 -0.615101
upperback -3.65862 3.07052 1.48296
thorax -8.7355 1.57799 1.42875
lowerneck -5.26949 4.65627 0.842982
upperneck 9.19555 6.21658 -0.26989
head 3.97493 3.09303 0.0802834
lclavicle 1.93823e-14 -7.70291e-16
lhumerus -27.1521 -5.77216 90.4304
lradius 24.851
lwrist -25.9115
lhand -25.6753 32.9782
lfingers 7.12502
lthumb 0.859323 62.9562
rclavicle 1.93823e-14 -7.70291e-16
rhumerus -32.5661 1.13561 -78.4199
rradius 31.3201
rwrist 2.81194
rhand -18.8919 -27.8989
rfingers 7.12502
rthumb 7.40949 -57.7491
153
root -2.86978 16.1914 -36.1432 3.23549 0.799819 -3.18523
lfemur -24.7701 5.21522 -7.85522
ltibia 51.0678
lfoot -24.2448 1.80826
ltoes -12.6105
rfemur -24.3086 -8.531 14.7075
rtibia 52.5053
rfoot -28.311 2.53896
rtoes -9.84508
lowerback 8.65135 2.34586 -0.318852
upperback -3.64891 3.23272 1.49304
thorax -8.83904 1.63969 1.239
lowerneck -5.23626 5.65126 0.835019
upperneck 9.16909 7.54848 -0.194418
head 3.96365 3.75498 0.174004
lclavicle 7.38712e-14 2.66371e-14
lhumerus -27.1144 -7.36165 91.0569
lradius 25.1726
lwrist -22.6429
lhand -24.2212 34.3715
lfingers 7.12502
lthumb 2.2637 64.3393
rclavicle 7.38712e-14 2.66371e-14
rhumerus -32.7652 1.08707 -78.1831
rradius 31.867
rwrist 2.0204
rhand -18.1998 -29.2746
rfingers 7.12502
rthumb 8.07748 -59.1003
154
root -2.86694 16.1864 -36.16 3.30436 1.03506 -3.13852
lfemur -25.2353 4.68448 -7.95478
ltibia 51.457
lfoot -24.0671 2.06618
ltoes -12.7382
rfemur -24.4823 -8.64217 14.6533
rtibia 52.6467
rfoot -28.2927 2.34788
rtoes -11.5679
lowerback 8.86701 2.44089 -0.1691
upperback -3.68132 3.379 1.47021
thorax -8.99454 1.70067 1.09724
lowerneck -4.98316 6.54889 1.55546
upperneck 9.13374 8.75517 -0.8074
head 3.98094 4.35015 -0.0934054
lclavicle -5.12472e-15 4.42296e-15
lhumerus -27.0383 -9.36252 91.8435
lradius 25.8335
lwrist -17.4644
lhand -21.9145 37.1687
lfingers 7.12502
lthumb 4.49134 67.1011
rclavicle -5.12472e-15 4.42296e-15
rhumerus -33.0582 1.2448 -77.9847
rradius 32.5675
rwrist 0.799437
rhand -17.7698 -30.8868
rfingers 7.12502
rthumb 8.49246 -60.696
155
root -2.86337 16.171 -36.1815 3.44352 1.38642 -3.10446
lfemur -25.8063 4.11555 -8.04958
ltibia 51.9366
lfoot -23.976 2.14742
ltoes -11.8164
rfemur -24.7633 -8.82659 14.618
rtibia 52.8387
rfoot -28.2759 2.02664
rtoes -12.0572
lowerback 9.0371 2.51449 -0.00889902
upperback -3.68734 3.49895 1.4625
thorax -9.09355 1.74854 0.971802
lowerneck -4.82286 7.35977 2.08499
upperneck 9.00773 9.84816 -1.28649
head 3.98249 4.88869 -0.287084
lclavicle -5.30274e-15 -1.39149e-14
lhumerus -26.9901 -11.3555 92.6369
lradius 26.6029
lwrist -12.5262
lhand -21.1412 38.1064
lfingers 7.12502
lthumb 5.238 68.0216
rclavicle -5.30274e-15 -1.39149e-14
rhumerus -33.29 1.63455 -77.8469
rradius 33.3726
rwrist -0.570326
rhand -17.7146 -32.7694
rfingers 7.12502
rthumb 8.54581 -62.5765
156
root -2.86146 16.1551 -36.2082 3.70195 1.90968 -3.08104
lfemur -26.7581 3.86392 -8.26115
ltibia 52.4873
lfoot -23.6831 2.58623
ltoes -11.6011
rfemur -25.2141 -9.03929 14.6277
rtibia 53.099
rfoot -28.2183 1.69463
rtoes -12.7288
lowerback 9.19746 2.52942 0.143676
upperback -3.74615 3.54398 1.48809
thorax -9.24519 1.76147 0.89762
lowerneck -4.54662 8.09258 2.5082
upperneck 8.71477 10.8463 -1.78608
head 3.9078 5.37826 -0.482338
lclavicle -9.76491e-15 -2.28602e-15
lhumerus -26.9747 -13.5209 93.5612
lradius 27.8695
lwrist -6.64876
lhand -20.1837 39.0166
lfingers 7.12502
lthumb 6.16251 68.9069
rclavicle -9.76491e-15 -2.28602e-15
rhumerus -33.4715 2.21777 -77.708
rradius 34.1766
rwrist -1.64922
rhand -17.6707 -34.5315
rfingers 7.12502
rthumb 8.5881 -64.3368
157
root -2.86158 16.15 -36.2366 3.96356 2.58068 -3.1168
lfemur -27.9587 3.82978 -8.50526
ltibia 53.1029
lfoot -23.2989 3.05288
ltoes -12.0007
rfemur -25.619 -9.26367 14.7451
rtibia 53.37
rfoot -28.1444 0.946365
rtoes -14.1578
lowerback 9.4531 2.52687 0.368221
upperback -3.80216 3.57853 1.52965
thorax -9.4463 1.76467 0.797668
lowerneck -4.4771 8.68362 2.78122
upperneck 8.39641 11.6601 -2.28869
head 3.85978 5.77075 -0.653984
lclavicle 4.25795e-14 2.17669e-14
lhumerus -27.0198 -15.9741 94.598
lradius 29.6528
lwrist -0.937782
lhand -20.7497 38.5305
lfingers 7.12502
lthumb 5.616 68.436
rclavicle 4.25795e-14 2.17669e-14
rhumerus -33.6765 2.84982 -77.5508
rradius 35.0291
rwrist -1.99013
rhand -17.6367 -35.6095
rfingers 7.12502
rthumb 8.62096 -65.4134
158
root -2.8628 16.1356 -36.2734 4.27999 3.40521 -3.03894
lfemur -29.2292 3.87579 -8.89258
ltibia 53.7442
lfoot -22.9062 3.13868
ltoes -10.5299
rfemur -26.112 -9.64232 14.7506
rtibia 53.7159
rfoot -28.0642 0.163877
rtoes -16.2768
lowerback 9.62699 2.51886 0.518993
upperback -3.78422 3.5899 1.5257
thorax -9.51932 1.75988 0.699781
lowerneck -4.33642 9.16822 3.11871
upperneck 7.94912 12.3247 -2.82869
head 3.76352 6.09234 -0.862158
lclavicle 1.55301e-14 -2.20651e-14
lhumerus -27.0797 -18.8101 95.711
lradius 32.0976
lwrist 3.93524
lhand -20.8713 37.1653
lfingers 7.12502
lthumb 5.49865 67.074
rclavicle 1.55301e-14 -2.20651e-14
rhumerus -33.8328 3.58152 -77.3855
rradius 35.9908
rwrist -1.5192
rhand -17.7626 -35.9125
rfingers 7.12502
rthumb 8.49948 -65.7214
159
root -2.86958 16.1221 -36.3155 4.60649 4.356 -2.99744
lfemur -30.584 4.10686 -9.26818
ltibia 54.3548
lfoot -22.6183 2.8326
ltoes -8.84703
rfemur -26.6442 -10.0117 14.8489
rtibia 54.0698
rfoot -27.9032 -0.78266
rtoes -16.9327
lowerback 9.90226 2.49691 0.665735
upperback -3.76873 3.58868 1.5673
thorax -9.65814 1.7501 0.650351
lowerneck -4.16637 9.57294 3.22212
upperneck 7.3801 12.8891 -3.32869
head 3.60051 6.36205 -1.02976
lclavicle 2.53699e-14 -9.74045e-15
lhumerus -27.1637 -21.7472 96.8751
lradius 35.0832
lwrist 7.24285
lhand -20.4357 36.7075
lfingers 7.12502
lthumb 5.91914 66.6048
rclavicle 2.53699e-14 -9.74045e-15
rhumerus -33.963 4.34739 -77.1496
rradius 36.9625
rwrist -0.287461
rhand -16.149 -36.7337
rfingers 7.12502
rthumb 10.0564 -66.4734
160
root -2.87637 16.1099 -36.3628 4.98154 5.50042 -2.94866
lfemur -32.118 4.48691 -9.7576
ltibia 54.9117
lfoot -22.333 2.72164
ltoes -7.29536
rfemur -27.1948 -10.5424 14.9544
rtibia 54.4542
rfoot -27.7707 -1.71418
rtoes -18.6498
lowerback 10.1529 2.46486 0.905609
upperback -3.7461 3.58281 1.56102
thorax -9.76535 1.73057 0.499942
lowerneck -3.99471 9.82309 3.39967
upperneck 6.77353 13.2391 -3.8736
head 3.43108 6.52824 -1.23669
lclavicle -8.81486e-15 -2.38542e-15
lhumerus -27.2234 -24.9377 98.0133
lradius 38.5617
lwrist 8.71314
lhand -19.4651 36.164
lfingers 7.12502
lthumb 6.8562 66.033
rclavicle -8.81486e-15 -2.38542e-15
rhumerus -34.0956 5.30927 -76.9922
rradius 38.0289
rwrist 1.0738
rhand -9.16331 -42.7974
rfingers 7.12502
rthumb 16.7892 -72.0915
161
root -2.88791 16.0969 -36.4112 5.32755 6.71084 -2.8569
lfemur -33.6572 5.06402 -10.3751
ltibia 55.4046
lfoot -21.8778 2.92709
ltoes -6.21856
rfemur -27.678 -11.034 15.0355
rtibia 54.8151
rfoot -27.6601 -2.75042
rtoes -18.7933
lowerback 10.4899 2.41177 1.05893
upperback -3.66255 3.53977 1.57753
thorax -9.86333 1.69899 0.42676
lowerneck -3.92903 9.94714 3.69769
upperneck 6.05848 13.4255 -4.73291
head 3.27953 6.60732 -1.56948
lclavicle 1.63003e-14 1.43125e-14
lhumerus -27.1097 -28.0363 99.0443
lradius 42.5012
lwrist 8.66904
lhand -16.8977 37.0081
lfingers 7.12502
lthumb 9.33407 66.7815
rclavicle 1.63003e-14 1.43125e-14
rhumerus -34.0379 6.58489 -76.8892
rradius 39.1014
rwrist 2.3939
rhand -11.9512 -38.1307
rfingers 7.12502
rthumb 14.104 -67.632
162
root -2.89865 16.0832 -36.4656 5.69412 8.02415 -2.87518
lfemur -35.241 5.63014 -10.8924
ltibia 55.9164
lfoot -21.3837 3.01745
ltoes -4.31102
rfemur -28.1901 -11.5886 15.2421
rtibia 55.1757
rfoot -27.5002 -3.84644
rtoes -19.6347
lowerback 10.771 2.36023 1.36435
upperback -3.61733 3.52116 1.58347
thorax -9.96085 1.66934 0.25447
lowerneck -3.85705 10.0519 3.87013
upperneck 5.53513 13.5656 -5.17437
head 3.1465 6.67398 -1.74701
lclavicle 5.7983e-14 6.75868e-15
lhumerus -27.082 -31.4369 100.097
lradius 46.8909
lwrist 8.31199
lhand -15.696 35.7365
lfingers 7.12502
lthumb 10.4935 65.4546
rclavicle 5.7983e-14 6.75868e-15
rhumerus -34.208 8.06598 -76.9422
rradius 40.4097
rwrist 3.1251
rhand -9.53641 -39.4747
rfingers 7.12502
rthumb 16.43 -68.7989
163
root -2.90894 16.071 -36.5197 5.9465 9.34337 -3.01946
lfemur -36.6987 6.28769 -11.2763
ltibia 56.4833
lfoot -21.0149 2.77331
ltoes -2.35415
rfemur -28.5886 -12.1497 15.5369
rtibia 55.5298
rfoot -27.4108 -4.46971
rtoes -19.3311
lowerback 11.1259 2.28951 1.76832
upperback -3.46907 3.49759 1.64713
thorax -9.98657 1.63394 0.0887879
lowerneck -3.93002 10.1132 4.00187
upperneck 4.94829 13.6422 -5.64517
head 3.01632 6.7066 -1.92497
lclavicle 1.98785e-14 1.90833e-14
lhumerus -26.6648 -34.8966 100.915
lradius 51.6419
lwrist 7.87422
lhand -14.6634 33.1411
lfingers 7.12502
lthumb 11.4894 62.8063
rclavicle 1.98785e-14 1.90833e-14
rhumerus -34.0521 9.92115 -77.05
rradius 41.5796
rwrist 3.47382
rhand -11.3722 -36.7487
rfingers 7.12502
rthumb 14.6619 -66.2103
164
root -2.92224 16.0445 -36.5798 6.23876 10.7572 -3.20503
lfemur -38.3169 6.8649 -11.6294
ltibia 57.179
lfoot -20.7532 2.84358
ltoes -2.09952
rfemur -29.1311 -12.6456 15.9503
rtibia 55.9542
rfoot -27.1203 -6.0003
rtoes -20.9065
lowerback 11.4374 2.18605 2.12894
upperback -3.32594 3.43097 1.77161
thorax -9.9998 1.5835 0.0229189
lowerneck -3.85868 10.153 4.21033
upperneck 4.21618 13.6886 -6.2625
head 2.82994 6.72783 -2.17585
lclavicle 2.41523e-14 1.23246e-14
lhumerus -25.9397 -38.5104 101.574
lradius 56.7979
lwrist 8.43235
lhand -9.20276 33.6918
lfingers 7.12502
lthumb 16.7513 62.9892
rclavicle 2.41523e-14 1.23246e-14
rhumerus -33.8891 12.0592 -77.2301
rradius 42.8584
rwrist 3.46789
rhand -10.7941 -37.0648
rfingers 7.12502
rthumb 15.2188 -66.4851
165
root -2.93195 16.0186 -36.6437 6.49449 12.112 -3.44214
lfemur -39.8986 7.54199 -11.9663
ltibia 57.996
lfoot -21.0097 2.62734
ltoes -3.24785
rfemur -29.7022 -13.2404 16.3863
rtibia 56.4138
rfoot -26.9551 -6.8317
rtoes -20.7069
lowerback 11.8127 2.12703 2.60992
upperback -3.24928 3.447 1.86044
thorax -10.1144 1.5622 -0.168299
lowerneck -3.83068 10.122 4.37103
upperneck 3.77196 13.6377 -6.63045
head 2.71826 6.70289 -2.33588
lclavicle -1.42628e-14 -2.06736e-14
lhumerus -24.9465 -42.3281 102.113
lradius 62.0897
lwrist 10.0601
lhand -7.27912 32.0967
lfingers 7.12502
lthumb 18.6024 61.2272
rclavicle -1.42628e-14 -2.06736e-14
rhumerus -33.7625 14.3644 -77.4802
rradius 44.0902
rwrist 3.16835
rhand -10.5674 -37.2033
rfingers 7.12502
rthumb 15.4372 -66.6069
